<?xml version="1.0" encoding="UTF-8"?>
<svg id="logo" xmlns="http://www.w3.org/2000/svg" viewBox="0 41 127.56 23.78">
  <defs>
    <style>
      .cls-1 {
        fill: #006860;
      }

      .cls-2 {
        fill: #ffb653;
      }
    </style>
  </defs>

  <rect class="cls-1" y="41.91" width="2.86" height="3.22"/>
  <rect class="cls-1" y="46.1" width="2.86" height="13.49"/>
  <path class="cls-1" d="M18.66,45.89c-1,0-1.85.2-2.55.59-.58.32-1.06.78-1.45,1.38-.38-.61-.85-1.07-1.4-1.39-.66-.38-1.5-.58-2.48-.58-.74,0-1.41.16-1.99.46-.38.2-.73.46-1.06.8v-1.05h-2.62v13.49h2.76v-6.9c0-1.45.23-2.52.67-3.18.43-.64,1.08-.95,1.99-.95s1.49.31,1.89.94c.42.67.63,1.77.63,3.29v6.8h2.81v-7.04c0-1.48.21-2.54.61-3.14.39-.58,1.03-.85,1.95-.85.79,0,1.38.27,1.81.81.44.56.67,1.37.67,2.41v7.82h2.89v-8.18c0-1.66-.47-3-1.39-4-.93-1.01-2.18-1.52-3.72-1.52Z"/>
  <path class="cls-1" d="M32.9,45.82c-.86,0-1.69.17-2.46.5-.58.25-1.11.59-1.61,1.01v-1.23h-2.9v17.68h2.88v-5.4c.52.45,1.09.8,1.68,1.05.78.33,1.64.5,2.55.5,1.02,0,1.95-.17,2.75-.51.8-.34,1.55-.87,2.23-1.58.63-.66,1.11-1.42,1.45-2.27.33-.84.5-1.74.5-2.68,0-2.02-.68-3.72-2.01-5.07-1.33-1.34-3.03-2.02-5.05-2.02ZM36.99,52.93c0,1.17-.4,2.14-1.23,2.96-.83.82-1.79,1.22-2.94,1.22s-2.06-.41-2.88-1.27c-.82-.86-1.21-1.87-1.21-3.08,0-1.11.42-2.1,1.23-2.93.83-.84,1.75-1.25,2.83-1.25,1.18,0,2.15.41,2.97,1.25.81.83,1.22,1.87,1.22,3.1Z"/>
  <rect class="cls-1" x="41.52" y="41.91" width="2.86" height="17.68"/>
  <path class="cls-1" d="M57.06,47.3c-.51-.44-1.06-.79-1.65-1.04-.77-.33-1.63-.49-2.55-.49-1.02,0-1.95.17-2.75.51-.81.34-1.56.87-2.23,1.57-.62.64-1.1,1.4-1.43,2.24-.33.84-.5,1.75-.5,2.69,0,2.02.68,3.72,2.01,5.07,1.33,1.35,3.03,2.03,5.04,2.03.86,0,1.69-.17,2.46-.5.57-.25,1.11-.59,1.61-1.02v1.22h2.9v-13.49h-2.9v1.2ZM55.95,49.85c.81.85,1.22,1.88,1.22,3.07,0,1.11-.42,2.1-1.23,2.93-.83.84-1.76,1.25-2.83,1.25-1.19,0-2.17-.41-2.99-1.25-.82-.84-1.22-1.85-1.22-3.1,0-1.18.4-2.15,1.22-2.97.82-.82,1.78-1.21,2.94-1.21s2.07.42,2.89,1.27Z"/>
  <path class="cls-1" d="M68.24,45.89c-.79,0-1.5.15-2.12.43-.43.2-.84.48-1.22.83v-1.05h-2.79v13.49h2.88v-6.16c0-1.73.25-2.98.74-3.71.47-.7,1.22-1.05,2.29-1.05.99,0,1.69.29,2.15.89.47.61.71,1.58.71,2.89v7.15h2.89v-7.65c0-1.92-.48-3.42-1.43-4.47-.96-1.05-2.34-1.59-4.1-1.59Z"/>
  <polygon class="cls-1" points="79.61 41.91 76.74 41.91 76.74 46.1 74.91 46.1 74.91 48.77 76.74 48.77 76.74 59.59 79.61 59.59 79.61 48.77 81.44 48.77 81.44 46.1 79.61 46.1 79.61 41.91"/>
  <g>
    <polygon class="cls-2" points="127.01 46.65 127.01 48.21 125.17 48.21 125.17 59.04 123.4 59.04 123.4 48.21 121.57 48.21 121.57 46.65 123.4 46.65 123.4 42.46 125.17 42.46 125.17 46.65 127.01 46.65"/>
    <path class="cls-2" d="M113.99,55.4c.05.63.26,1.16.63,1.59.43.51.98.76,1.64.76.61,0,1.12-.19,1.52-.57.41-.39.61-.89.61-1.48,0-.52-.14-.96-.43-1.32-.27-.35-.71-.65-1.3-.89-.19-.07-.46-.18-.81-.3-1.11-.42-1.52-.66-1.68-.79-.43-.34-.74-.72-.95-1.15-.2-.43-.3-.93-.3-1.5,0-.99.33-1.8,1.02-2.49s1.5-1.02,2.49-1.02,1.85.3,2.45.89c.54.54.86,1.29.96,2.25h-1.69c-.08-.43-.25-.78-.52-1.04-.33-.32-.77-.48-1.3-.48-.49,0-.91.17-1.24.52-.33.33-.5.76-.5,1.25,0,.85.7,1.53,2.06,2.04l.83.31c.94.38,1.61.85,1.99,1.4.39.54.58,1.29.58,2.23,0,1.09-.35,1.97-1.09,2.7-.74.72-1.64,1.07-2.77,1.07s-2.02-.37-2.71-1.12c-.63-.7-1.01-1.66-1.12-2.86h1.63Z"/>
    <path class="cls-2" d="M103.56,59.33c-1.86,0-3.42-.62-4.65-1.86s-1.85-2.82-1.85-4.69c0-.87.16-1.7.47-2.48.3-.78.75-1.47,1.32-2.07.61-.65,1.3-1.13,2.04-1.45.73-.3,1.59-.46,2.53-.46.85,0,1.64.15,2.34.45.71.3,1.36.75,1.95,1.36l.47.49v-1.97h1.8v12.39h-1.8v-2l-.47.49c-.57.6-1.21,1.05-1.91,1.35-.69.3-1.45.45-2.24.45ZM98.92,52.76c0,1.38.47,2.55,1.38,3.49.92.93,2.06,1.41,3.38,1.41,1.22,0,2.3-.48,3.23-1.42.92-.94,1.39-2.05,1.39-3.31,0-1.34-.47-2.5-1.38-3.46-.92-.96-2.02-1.44-3.29-1.44s-2.41.46-3.33,1.37c-.91.91-1.38,2.04-1.38,3.36Z"/>
    <path class="cls-2" d="M82.86,50.42c.3-.75.74-1.45,1.32-2.07.64-.69,1.36-1.21,2.15-1.56.8-.35,1.66-.53,2.56-.53,1.42,0,2.66.39,3.7,1.17.95.72,1.67,1.71,2.15,2.96h-2c-.42-.76-.96-1.34-1.6-1.73-.68-.42-1.5-.63-2.45-.63-1.22,0-2.28.47-3.13,1.39s-1.28,2.07-1.28,3.41.43,2.51,1.3,3.42c.86.92,1.95,1.39,3.24,1.39.87,0,1.66-.24,2.36-.69.66-.42,1.18-1.02,1.57-1.77h1.98c-.51,1.32-1.25,2.35-2.18,3.05-1.01.76-2.27,1.15-3.73,1.15-.92,0-1.77-.16-2.51-.48-.75-.32-1.43-.8-2.04-1.43-.58-.61-1.04-1.33-1.36-2.14-.33-.8-.49-1.64-.49-2.48s.15-1.68.44-2.43Z"/>
    <path class="cls-1" d="M125.72,46.1h1.84v2.66h-1.84v10.83h-2.87v-10.83h-1.83v-2.66h1.83v-4.19h2.87v4.19ZM127.01,48.21v-1.56h-1.84v-4.19h-1.77v4.19h-1.83v1.56h1.83v10.83h1.77v-10.83h1.84Z"/>
    <path class="cls-1" d="M111.78,54.85h2.75v.27c0,.63.17,1.12.51,1.51.33.39.73.57,1.22.57s.85-.14,1.14-.42c.3-.28.44-.64.44-1.08,0-.39-.1-.72-.31-.98-.22-.27-.58-.52-1.08-.72-.19-.07-.45-.18-.79-.3-.97-.36-1.56-.64-1.83-.87-.5-.39-.87-.84-1.1-1.35-.24-.5-.36-1.08-.36-1.73,0-1.12.4-2.09,1.18-2.88.78-.78,1.75-1.18,2.88-1.18s2.13.35,2.83,1.05c.7.69,1.09,1.67,1.15,2.9l.02.29h-2.78l-.02-.25c-.03-.42-.16-.72-.39-.95-.22-.21-.52-.32-.91-.32-.34,0-.62.12-.85.35-.22.23-.34.52-.34.87,0,.59.58,1.1,1.71,1.52l.79.3c1.08.44,1.83.97,2.28,1.61s.68,1.5.68,2.55c0,1.23-.42,2.27-1.26,3.09-.83.82-1.89,1.23-3.15,1.23s-2.32-.44-3.11-1.3c-.78-.85-1.21-2.03-1.29-3.49v-.29ZM114.62,56.99c-.37-.43-.58-.96-.63-1.59h-1.63c.11,1.2.49,2.16,1.12,2.86.69.75,1.58,1.12,2.71,1.12s2.03-.35,2.77-1.07c.74-.73,1.09-1.61,1.09-2.7,0-.94-.19-1.69-.58-2.23-.38-.55-1.05-1.02-1.99-1.4l-.83-.31c-1.36-.51-2.06-1.19-2.06-2.04,0-.49.17-.92.5-1.25.33-.35.75-.52,1.24-.52.53,0,.97.16,1.3.48.27.26.44.61.52,1.04h1.69c-.1-.96-.42-1.71-.96-2.25-.6-.59-1.42-.89-2.45-.89s-1.8.33-2.49,1.02-1.02,1.5-1.02,2.49c0,.57.1,1.07.3,1.5.21.43.52.81.95,1.15.16.13.57.37,1.68.79.35.12.62.23.81.3.59.24,1.03.54,1.3.89.29.36.43.8.43,1.32,0,.59-.2,1.09-.61,1.48-.4.38-.91.57-1.52.57-.66,0-1.21-.25-1.64-.76Z"/>
    <path class="cls-1" d="M103.68,57.11c1.08,0,2.01-.41,2.83-1.25s1.24-1.82,1.24-2.93c0-1.2-.41-2.23-1.23-3.08-.82-.86-1.76-1.27-2.89-1.27s-2.12.39-2.94,1.21-1.22,1.79-1.22,2.97c0,1.25.4,2.26,1.23,3.1.82.84,1.79,1.25,2.98,1.25ZM100.3,56.25c-.91-.94-1.38-2.11-1.38-3.49s.47-2.45,1.38-3.36c.92-.91,2.04-1.37,3.33-1.37s2.37.48,3.29,1.44c.91.96,1.38,2.12,1.38,3.46,0,1.26-.47,2.37-1.39,3.31-.93.94-2.01,1.42-3.23,1.42-1.32,0-2.46-.48-3.38-1.41Z"/>
    <path class="cls-1" d="M98.91,57.47c1.23,1.24,2.79,1.86,4.65,1.86.79,0,1.55-.15,2.24-.45.7-.3,1.34-.75,1.91-1.35l.47-.49v2h1.8v-12.39h-1.8v1.97l-.47-.49c-.59-.61-1.24-1.06-1.95-1.36-.7-.3-1.49-.45-2.34-.45-.94,0-1.8.16-2.53.46-.74.32-1.43.8-2.04,1.45-.57.6-1.02,1.29-1.32,2.07-.31.78-.47,1.61-.47,2.48,0,1.87.62,3.45,1.85,4.69ZM98.45,47.85c.67-.7,1.42-1.23,2.22-1.57.81-.34,1.73-.51,2.75-.51.92,0,1.78.16,2.56.49.59.25,1.14.6,1.65,1.04v-1.2h2.9v13.49h-2.9v-1.23c-.5.43-1.04.77-1.61,1.02-.77.34-1.59.5-2.46.5-2.01,0-3.7-.68-5.04-2.03-.97-.98-1.59-2.15-1.85-3.49-.11-.5-.16-1.03-.16-1.58s.06-1.06.17-1.57c.08-.38.19-.75.33-1.11.34-.85.82-1.6,1.44-2.25Z"/>
    <path class="cls-1" d="M86.09,59.41c-.81-.35-1.56-.87-2.22-1.57-.62-.65-1.12-1.43-1.47-2.3-.36-.87-.53-1.78-.53-2.69s.16-1.82.48-2.63c.32-.82.8-1.57,1.42-2.25.69-.73,1.48-1.3,2.34-1.68.87-.39,1.8-.58,2.78-.58,1.54,0,2.89.43,4.03,1.28,1.13.85,1.96,2.06,2.47,3.59l.12.36h-3.1l-.08-.15c-.38-.74-.88-1.3-1.47-1.67-.6-.36-1.33-.54-2.17-.54-1.08,0-1.97.39-2.73,1.21-.75.82-1.13,1.84-1.13,3.04s.38,2.24,1.15,3.05c.76.81,1.7,1.21,2.84,1.21.76,0,1.45-.21,2.06-.6.62-.4,1.1-.97,1.45-1.71l.07-.15h3.12l-.13.36c-.56,1.61-1.4,2.85-2.51,3.68s-2.47,1.26-4.06,1.26c-1,0-1.91-.18-2.73-.52ZM86.33,46.79c-.79.35-1.51.87-2.15,1.56-.58.62-1.02,1.32-1.32,2.07-.29.75-.44,1.57-.44,2.43s.16,1.68.49,2.48c.32.81.78,1.53,1.36,2.14.61.63,1.29,1.11,2.04,1.43.74.32,1.59.48,2.51.48,1.46,0,2.72-.39,3.73-1.15.93-.7,1.67-1.73,2.18-3.05h-1.98c-.39.75-.91,1.35-1.57,1.77-.7.45-1.49.69-2.36.69-1.29,0-2.38-.47-3.24-1.39-.87-.91-1.3-2.06-1.3-3.42s.43-2.49,1.28-3.41,1.91-1.39,3.13-1.39c.95,0,1.77.21,2.45.63.64.39,1.18.97,1.6,1.73h2c-.48-1.25-1.2-2.24-2.15-2.96-1.04-.78-2.28-1.17-3.7-1.17-.9,0-1.76.18-2.56.53Z"/>
  </g>
</svg>